<svg width="15" height="16" viewBox="0 0 15 16" fill="none" xmlns="http://www.w3.org/2000/svg">
<path fill-rule="evenodd" clip-rule="evenodd" d="M14.4098 2.68013L11.2953 3.96499L4.09157 11.9475L3.13205 15.1771L0.525635 12.8249L3.64013 11.5401L10.8438 3.55759L11.8034 0.328003L14.4098 2.68013Z" fill="#FFA201"/>
<path d="M3.65764 1.82882C3.65764 2.83885 2.83885 3.65764 1.82882 3.65764C0.81879 3.65764 0 2.83885 0 1.82882C0 0.81879 0.81879 0 1.82882 0C2.83885 0 3.65764 0.81879 3.65764 1.82882Z" fill="#E41F07"/>
<path d="M9.0851 1.82882C9.0851 2.83885 8.26631 3.65764 7.25628 3.65764C6.24625 3.65764 5.42746 2.83885 5.42746 1.82882C5.42746 0.81879 6.24625 0 7.25628 0C8.26631 0 9.0851 0.81879 9.0851 1.82882Z" fill="#E41F07"/>
<path d="M14.6305 1.82882C14.6305 2.83885 13.8118 3.65764 12.8017 3.65764C11.7917 3.65764 10.9729 2.83885 10.9729 1.82882C10.9729 0.81879 11.7917 0 12.8017 0C13.8118 0 14.6305 0.81879 14.6305 1.82882Z" fill="#E41F07"/>
<path d="M9.0851 7.84622C9.0851 8.85625 8.26631 9.67504 7.25628 9.67504C6.24625 9.67504 5.42746 8.85625 5.42746 7.84622C5.42746 6.83619 6.24625 6.0174 7.25628 6.0174C8.26631 6.0174 9.0851 6.83619 9.0851 7.84622Z" fill="#E41F07"/>
<path d="M14.6305 7.84622C14.6305 8.85625 13.8118 9.67504 12.8017 9.67504C11.7917 9.67504 10.9729 8.85625 10.9729 7.84622C10.9729 6.83619 11.7917 6.0174 12.8017 6.0174C13.8118 6.0174 14.6305 6.83619 14.6305 7.84622Z" fill="#E41F07"/>
<path d="M3.65764 13.9816C3.65764 14.9916 2.83885 15.8104 1.82882 15.8104C0.81879 15.8104 0 14.9916 0 13.9816C0 12.9716 0.81879 12.1528 1.82882 12.1528C2.83885 12.1528 3.65764 12.9716 3.65764 13.9816Z" fill="#E41F07"/>
<path d="M14.6305 13.9816C14.6305 14.9916 13.8118 15.8104 12.8017 15.8104C11.7917 15.8104 10.9729 14.9916 10.9729 13.9816C10.9729 12.9716 11.7917 12.1528 12.8017 12.1528C13.8118 12.1528 14.6305 12.9716 14.6305 13.9816Z" fill="#E41F07"/>
</svg>
