<svg width="111" height="16" viewBox="0 0 111 16" fill="none" xmlns="http://www.w3.org/2000/svg">
<path fill-rule="evenodd" clip-rule="evenodd" d="M14.4098 2.77523L11.2953 4.06008L4.09157 12.0426L3.13205 15.2721L0.525635 12.92L3.64013 11.6352L10.8438 3.65268L11.8034 0.423096L14.4098 2.77523Z" fill="#FFA201"/>
<path d="M3.65764 1.92391C3.65764 2.93394 2.83885 3.75273 1.82882 3.75273C0.81879 3.75273 0 2.93394 0 1.92391C0 0.913882 0.81879 0.0950928 1.82882 0.0950928C2.83885 0.0950928 3.65764 0.913882 3.65764 1.92391Z" fill="#E41F07"/>
<path d="M9.0851 1.92391C9.0851 2.93394 8.26631 3.75273 7.25628 3.75273C6.24625 3.75273 5.42746 2.93394 5.42746 1.92391C5.42746 0.913882 6.24625 0.0950928 7.25628 0.0950928C8.26631 0.0950928 9.0851 0.913882 9.0851 1.92391Z" fill="#E41F07"/>
<path d="M14.6305 1.92391C14.6305 2.93394 13.8118 3.75273 12.8017 3.75273C11.7917 3.75273 10.9729 2.93394 10.9729 1.92391C10.9729 0.913882 11.7917 0.0950928 12.8017 0.0950928C13.8118 0.0950928 14.6305 0.913882 14.6305 1.92391Z" fill="#E41F07"/>
<path d="M9.0851 7.94131C9.0851 8.95134 8.26631 9.77013 7.25628 9.77013C6.24625 9.77013 5.42746 8.95134 5.42746 7.94131C5.42746 6.93128 6.24625 6.11249 7.25628 6.11249C8.26631 6.11249 9.0851 6.93128 9.0851 7.94131Z" fill="#E41F07"/>
<path d="M14.6305 7.94131C14.6305 8.95134 13.8118 9.77013 12.8017 9.77013C11.7917 9.77013 10.9729 8.95134 10.9729 7.94131C10.9729 6.93128 11.7917 6.11249 12.8017 6.11249C13.8118 6.11249 14.6305 6.93128 14.6305 7.94131Z" fill="#E41F07"/>
<path d="M3.65764 14.0767C3.65764 15.0867 2.83885 15.9055 1.82882 15.9055C0.81879 15.9055 0 15.0867 0 14.0767C0 13.0667 0.81879 12.2479 1.82882 12.2479C2.83885 12.2479 3.65764 13.0667 3.65764 14.0767Z" fill="#E41F07"/>
<path d="M14.6305 14.0767C14.6305 15.0867 13.8118 15.9055 12.8017 15.9055C11.7917 15.9055 10.9729 15.0867 10.9729 14.0767C10.9729 13.0667 11.7917 12.2479 12.8017 12.2479C13.8118 12.2479 14.6305 13.0667 14.6305 14.0767Z" fill="#E41F07"/>
<path d="M23.5796 9.69143H22.1132V13.3943C22.1132 13.8819 22.0826 14.3238 22.0215 14.72C21.9604 15.1162 21.8039 15.4286 21.5518 15.6571C21.3074 15.8857 20.9065 16 20.3489 16C19.8067 16 19.4133 15.8857 19.1689 15.6571C18.9245 15.421 18.7718 15.1086 18.7107 14.72C18.6572 14.3238 18.6305 13.8819 18.6305 13.3943V2.60571C18.6305 2.1181 18.6572 1.68 18.7107 1.29143C18.7718 0.895238 18.9245 0.582857 19.1689 0.354286C19.4133 0.118095 19.8067 0 20.3489 0H24.1295C25.0918 0.0457143 25.9396 0.24381 26.6728 0.594286C26.9935 0.746667 27.3067 0.937143 27.6122 1.16571C27.9177 1.38667 28.1888 1.66476 28.4256 2C28.67 2.32762 28.8609 2.72 28.9984 3.17714C29.1435 3.63429 29.216 4.16 29.216 4.75429C29.216 5.56952 29.0862 6.28571 28.8265 6.90286C28.5745 7.51238 28.2079 8.02286 27.7267 8.43429C26.7491 9.27238 25.3667 9.69143 23.5796 9.69143ZM22.1132 2.69714V6.97143H23.6712C24.0531 6.94857 24.3968 6.85714 24.7023 6.69714C25.0078 6.53714 25.256 6.30095 25.4469 5.98857C25.6379 5.66857 25.7333 5.25714 25.7333 4.75429C25.7333 4.2819 25.6379 3.90476 25.4469 3.62286C25.2636 3.33333 25.0345 3.11238 24.7596 2.96C24.4923 2.82286 24.1677 2.73524 23.7858 2.69714H22.1132Z" fill="black"/>
<path d="M38.2206 6.28571C38.2206 7.42857 37.6554 8 36.5251 8C36.3571 8 36.1585 8.02286 35.9294 8.06857C35.7079 8.10667 35.4864 8.19048 35.2649 8.32C35.0969 8.41905 34.9441 8.54857 34.8067 8.70857C34.6692 8.87619 34.5584 9.08571 34.4744 9.33714C34.3904 9.58857 34.3484 9.88952 34.3484 10.24V13.5086C34.3484 13.9581 34.3064 14.3733 34.2224 14.7543C34.1384 15.1276 33.9704 15.4286 33.7183 15.6571C33.4739 15.8857 33.1035 16 32.6071 16C32.1259 16 31.7631 15.8857 31.5187 15.6571C31.2743 15.4286 31.1101 15.1238 31.0261 14.7429C30.9497 14.3619 30.9115 13.9505 30.9115 13.5086V7.10857C30.9115 6.64381 30.9497 6.22476 31.0261 5.85143C31.1101 5.47048 31.2743 5.16571 31.5187 4.93714C31.7631 4.70857 32.1259 4.59429 32.6071 4.59429C33.1111 4.59429 33.4701 4.73143 33.684 5.00571C33.9054 5.27238 34.0391 5.61905 34.0849 6.04571C34.1384 6.46476 34.1651 6.91048 34.1651 7.38286H34.3484C34.547 6.60571 34.8678 5.94667 35.3107 5.40571C35.7537 4.86476 36.2425 4.59429 36.7771 4.59429C37.3652 4.59429 37.7509 4.72762 37.9342 4.99429C38.1251 5.26095 38.2206 5.69143 38.2206 6.28571Z" fill="black"/>
<path d="M49.1957 8.77714V9.48571C49.1957 9.85905 49.1002 10.1943 48.9093 10.4914C48.726 10.781 48.2792 10.9257 47.5689 10.9257H43.0093V12.0229C43.0093 12.4419 43.1162 12.8305 43.3301 13.1886C43.5516 13.539 43.9182 13.7143 44.4299 13.7143C44.8347 13.7143 45.1287 13.6495 45.312 13.52C45.4953 13.3829 45.6519 13.2076 45.7817 12.9943C45.8657 12.8648 45.9688 12.7505 46.091 12.6514C46.2209 12.5448 46.3965 12.4571 46.618 12.3886C46.8395 12.3124 47.1488 12.2743 47.546 12.2743C47.9584 12.2743 48.3097 12.3543 48.5999 12.5143C48.8902 12.6667 49.0353 12.9676 49.0353 13.4171C49.0353 13.9124 48.8787 14.3276 48.5656 14.6629C48.2524 14.9905 47.8591 15.2533 47.3856 15.4514C46.9121 15.6495 46.3965 15.7905 45.839 15.8743C45.2891 15.9581 44.7736 16 44.2924 16C43.6585 15.9924 43.0551 15.9124 42.4823 15.76C41.9095 15.6076 41.4054 15.3638 40.9701 15.0286C40.5271 14.6933 40.1758 14.2552 39.9161 13.7143C39.6565 13.1733 39.5266 12.5105 39.5266 11.7257V9.05143C39.5266 8.33524 39.6144 7.7219 39.7901 7.21143C39.9658 6.70857 40.1873 6.28952 40.4546 5.95429C40.7295 5.61905 41.0388 5.35619 41.3825 5.16571C41.7262 4.98286 42.0737 4.84571 42.425 4.75429C42.7764 4.66286 43.1086 4.60571 43.4217 4.58286C43.7425 4.56 44.0175 4.54857 44.2466 4.54857C45.018 4.54857 45.6786 4.61714 46.2285 4.75429C46.7708 4.89143 47.2252 5.07048 47.5918 5.29143C47.9584 5.51238 48.2486 5.76762 48.4625 6.05714C48.6839 6.33905 48.8443 6.63619 48.9436 6.94857C49.0505 7.25333 49.1193 7.56571 49.1498 7.88571C49.1804 8.20571 49.1957 8.50286 49.1957 8.77714ZM43.0093 8.41143V9.21143H45.8734C45.8734 8.71619 45.8466 8.30476 45.7932 7.97714C45.7473 7.6419 45.6175 7.39048 45.4037 7.22286C45.1974 7.05524 44.8499 6.97143 44.3611 6.97143C43.8036 6.97143 43.437 7.12381 43.2613 7.42857C43.0933 7.72571 43.0093 8.05333 43.0093 8.41143Z" fill="black"/>
<path d="M60.606 7.17714V13.4171C60.606 13.8895 60.5717 14.3238 60.5029 14.72C60.4342 15.1086 60.2776 15.421 60.0332 15.6571C59.7965 15.8857 59.4146 16 58.8876 16C58.3912 16 58.0169 15.9048 57.7649 15.7143C57.5129 15.5162 57.341 15.2724 57.2494 14.9829C57.1654 14.6857 57.1234 14.3848 57.1234 14.08C56.9706 14.5829 56.6957 15.0286 56.2985 15.4171C55.9014 15.8057 55.3515 16 54.6488 16C54.2288 16 53.8087 15.9314 53.3886 15.7943C52.9686 15.6571 52.5905 15.4286 52.2545 15.1086C51.9184 14.7886 51.6435 14.3733 51.4296 13.8629C51.2234 13.3448 51.1203 12.7086 51.1203 11.9543V8.64C51.1203 7.8781 51.2234 7.2419 51.4296 6.73143C51.6435 6.21333 51.9184 5.79429 52.2545 5.47429C52.5905 5.1619 52.9686 4.93714 53.3886 4.8C53.8087 4.66286 54.2288 4.59429 54.6488 4.59429C55.3515 4.59429 55.9014 4.78476 56.2985 5.16571C56.6957 5.54667 56.9706 5.99619 57.1234 6.51429C57.1234 5.81333 57.2952 5.31429 57.6389 5.01714C57.9826 4.72 58.3988 4.57143 58.8876 4.57143C59.384 4.57143 59.7545 4.68952 59.9989 4.92571C60.2433 5.1619 60.4036 5.4781 60.48 5.87429C60.564 6.27048 60.606 6.70476 60.606 7.17714ZM54.6488 8.89143V11.6571C54.6488 12.099 54.7023 12.4876 54.8092 12.8229C54.9161 13.1581 55.1987 13.3257 55.657 13.3257C56.2221 13.3257 56.6116 13.0514 56.8255 12.5029C56.9324 12.2286 57.005 11.8819 57.0432 11.4629C57.089 11.0362 57.1157 10.5295 57.1234 9.94286C57.1234 9.58476 57.0813 9.2 56.9973 8.78857C56.9133 8.36952 56.7644 8.01143 56.5505 7.71429C56.3367 7.41714 56.0388 7.26857 55.657 7.26857C55.1987 7.26857 54.9161 7.43238 54.8092 7.76C54.7023 8.08762 54.6488 8.46476 54.6488 8.89143Z" fill="black"/>
<path d="M72.2685 2.60571V13.4171C72.2685 13.8895 72.2341 14.3238 72.1654 14.72C72.0966 15.1086 71.94 15.421 71.6956 15.6571C71.4589 15.8857 71.077 16 70.55 16C70.0536 16 69.6794 15.9048 69.4273 15.7143C69.1753 15.5162 69.0034 15.2724 68.9118 14.9829C68.8278 14.6857 68.7858 14.3848 68.7858 14.08C68.633 14.5829 68.3581 15.0286 67.9609 15.4171C67.5638 15.8057 67.0139 16 66.3112 16C65.8912 16 65.4711 15.9314 65.051 15.7943C64.631 15.6571 64.2529 15.4286 63.9169 15.1086C63.5808 14.7886 63.3059 14.3733 63.092 13.8629C62.8858 13.3448 62.7827 12.7086 62.7827 11.9543V8.64C62.7827 7.8781 62.8858 7.2419 63.092 6.73143C63.3059 6.21333 63.5808 5.79429 63.9169 5.47429C64.2529 5.1619 64.631 4.93714 65.051 4.8C65.4711 4.66286 65.8912 4.59429 66.3112 4.59429C67.0139 4.59429 67.5638 4.78476 67.9609 5.16571C68.3581 5.54667 68.633 5.99619 68.7858 6.51429V2.60571C68.7858 2.12571 68.824 1.69143 68.9003 1.30286C68.9843 0.906667 69.1524 0.590476 69.4044 0.354286C69.6564 0.118095 70.0383 0 70.55 0C71.0465 0 71.4169 0.118095 71.6613 0.354286C71.9057 0.590476 72.0661 0.906667 72.1424 1.30286C72.2265 1.69905 72.2685 2.13333 72.2685 2.60571ZM66.3112 8.89143V11.6571C66.3112 12.099 66.3647 12.4876 66.4716 12.8229C66.5785 13.1581 66.8611 13.3257 67.3194 13.3257C67.8846 13.3257 68.2741 13.0514 68.4879 12.5029C68.5948 12.2286 68.6674 11.8819 68.7056 11.4629C68.7514 11.0362 68.7781 10.5295 68.7858 9.94286C68.7858 9.58476 68.7438 9.2 68.6598 8.78857C68.5757 8.36952 68.4268 8.01143 68.213 7.71429C67.9991 7.41714 67.7013 7.26857 67.3194 7.26857C66.8611 7.26857 66.5785 7.43238 66.4716 7.76C66.3647 8.08762 66.3112 8.46476 66.3112 8.89143Z" fill="black"/>
<path d="M82.7853 16C82.2888 16 81.9146 15.8819 81.6626 15.6457C81.4105 15.4095 81.2425 15.0971 81.1585 14.7086C81.0821 14.3124 81.0439 13.8819 81.0439 13.4171V8.89143C81.0439 8.45714 80.9866 8.07619 80.8721 7.74857C80.7575 7.41333 80.4787 7.24571 80.0358 7.24571C79.7303 7.24571 79.4821 7.34857 79.2911 7.55429C79.1002 7.75238 78.9512 8.03048 78.8443 8.38857C78.7298 8.73905 78.6496 9.15809 78.6037 9.64571C78.5656 10.1257 78.5465 10.6438 78.5465 11.2V13.4171C78.5465 13.8819 78.5045 14.3124 78.4204 14.7086C78.3441 15.0971 78.1799 15.4095 77.9278 15.6457C77.6834 15.8819 77.3092 16 76.8051 16C76.301 16 75.923 15.8819 75.671 15.6457C75.4266 15.4095 75.2623 15.0971 75.1783 14.7086C75.102 14.3124 75.0638 13.8819 75.0638 13.4171V7.15429C75.0638 6.67429 75.0981 6.24 75.1669 5.85143C75.2433 5.46286 75.4036 5.15429 75.648 4.92571C75.9001 4.68952 76.2858 4.57143 76.8051 4.57143C77.3092 4.57143 77.6834 4.67048 77.9278 4.86857C78.1799 5.05905 78.3441 5.30286 78.4204 5.6C78.5045 5.88952 78.5465 6.18667 78.5465 6.49143C78.6992 5.99619 79.0123 5.55429 79.4859 5.16571C79.9594 4.76952 80.5398 4.57143 81.2272 4.57143C81.7313 4.57143 82.2201 4.69333 82.6936 4.93714C83.1671 5.18095 83.5719 5.57714 83.908 6.12571C84.1371 5.60762 84.5572 5.21905 85.1682 4.96C85.7868 4.70095 86.4054 4.57143 87.0241 4.57143C87.4441 4.57143 87.8642 4.64 88.2842 4.77714C88.7043 4.91429 89.0824 5.14286 89.4184 5.46286C89.7545 5.78286 90.0256 6.2019 90.2318 6.72C90.4456 7.23048 90.5526 7.86286 90.5526 8.61714V13.4171C90.5526 13.8819 90.5067 14.3124 90.4151 14.7086C90.3311 15.0971 90.1631 15.4095 89.911 15.6457C89.659 15.8819 89.2847 16 88.7883 16C88.2842 16 87.9062 15.8819 87.6541 15.6457C87.4021 15.4095 87.2341 15.0971 87.1501 14.7086C87.0661 14.3124 87.0241 13.8819 87.0241 13.4171V8.89143C87.0241 8.44952 86.963 8.06476 86.8408 7.73714C86.7186 7.40952 86.436 7.24571 85.993 7.24571C85.6493 7.24571 85.3744 7.39048 85.1682 7.68C84.9696 7.9619 84.8245 8.33143 84.7328 8.78857C84.6412 9.24571 84.5801 9.73714 84.5495 10.2629V13.4171C84.5495 13.8819 84.5075 14.3124 84.4235 14.7086C84.3395 15.0971 84.1715 15.4095 83.9194 15.6457C83.675 15.8819 83.297 16 82.7853 16Z" fill="black"/>
<path d="M97.1743 1.73714C97.1743 2.32381 97.0215 2.7619 96.716 3.05143C96.4105 3.33333 95.9828 3.47429 95.4329 3.47429C94.883 3.47429 94.4553 3.33333 94.1498 3.05143C93.8443 2.7619 93.6916 2.32381 93.6916 1.73714C93.6916 1.12762 93.8443 0.685714 94.1498 0.411429C94.4553 0.137143 94.883 0 95.4329 0C96.021 0 96.4563 0.137143 96.7389 0.411429C97.0291 0.685714 97.1743 1.12762 97.1743 1.73714ZM93.6687 13.44V7.13143C93.6687 6.67429 93.7068 6.25143 93.7832 5.86286C93.8672 5.47429 94.0314 5.1619 94.2758 4.92571C94.5279 4.68952 94.9059 4.57143 95.41 4.57143C95.9141 4.57143 96.2883 4.68952 96.5327 4.92571C96.7847 5.1619 96.949 5.47429 97.0253 5.86286C97.1093 6.25143 97.1513 6.67429 97.1513 7.13143V13.44C97.1513 13.9048 97.1093 14.3314 97.0253 14.72C96.949 15.1086 96.7847 15.421 96.5327 15.6571C96.2883 15.8857 95.9141 16 95.41 16C94.9059 16 94.5279 15.8857 94.2758 15.6571C94.0314 15.421 93.8672 15.1086 93.7832 14.72C93.7068 14.3314 93.6687 13.9048 93.6687 13.44Z" fill="black"/>
<path d="M110.143 8.64V13.3943C110.143 13.859 110.097 14.2895 110.005 14.6857C109.921 15.0819 109.749 15.4019 109.49 15.6457C109.238 15.8819 108.86 16 108.356 16C107.859 16 107.485 15.8819 107.233 15.6457C106.981 15.4095 106.813 15.0933 106.729 14.6971C106.652 14.301 106.614 13.8667 106.614 13.3943V8.93714C106.614 8.48 106.557 8.08381 106.442 7.74857C106.335 7.41333 106.057 7.24571 105.606 7.24571C105.293 7.24571 105.041 7.34857 104.85 7.55429C104.659 7.76 104.51 8.0419 104.403 8.4C104.289 8.75809 104.212 9.18095 104.174 9.66857C104.136 10.1486 104.117 10.6667 104.117 11.2229V13.3943C104.117 13.859 104.071 14.2895 103.979 14.6857C103.895 15.0819 103.723 15.4019 103.464 15.6457C103.212 15.8819 102.834 16 102.33 16C101.833 16 101.459 15.8819 101.207 15.6457C100.955 15.4095 100.787 15.0933 100.703 14.6971C100.626 14.301 100.588 13.8667 100.588 13.3943V7.15429C100.588 6.67429 100.619 6.24 100.68 5.85143C100.749 5.46286 100.905 5.15429 101.15 4.92571C101.402 4.68952 101.795 4.57143 102.33 4.57143C102.826 4.57143 103.2 4.67048 103.452 4.86857C103.712 5.05905 103.888 5.30286 103.979 5.6C104.071 5.88952 104.117 6.18667 104.117 6.49143C104.254 5.98857 104.533 5.54286 104.953 5.15429C105.373 4.76571 105.927 4.57143 106.614 4.57143C107.034 4.57143 107.454 4.64 107.874 4.77714C108.294 4.91429 108.672 5.14286 109.009 5.46286C109.345 5.78286 109.616 6.2019 109.822 6.72C110.036 7.23809 110.143 7.8781 110.143 8.64Z" fill="black"/>
</svg>
